<svg height="478pt" viewBox="0 -111 478 478" width="478pt" xmlns="http://www.w3.org/2000/svg"><path d="m435.101562 48.453125h-10.9375v-5.554687c-.027343-23.679688-19.21875-42.8710942-42.898437-42.898438h-53.4375c-5.523437 0-10 4.476562-10 10v59.585938h-157.65625v-59.585938c0-5.523438-4.476563-10-10-10h-53.4375c-23.679687.0273438-42.871094 19.21875-42.898437 42.902344v5.550781h-10.9375c-23.679688.027344-42.8710942 19.21875-42.898438 42.902344v68.785156c.0273438 23.679687 19.21875 42.871094 42.898438 42.898437h10.9375v10.9375c.027343 23.679688 19.21875 42.871094 42.898437 42.898438h53.4375c5.523437 0 10-4.476562 10-10v-59.585938h157.65625v59.589844c0 5.519532 4.476563 10 10 10h53.4375c23.679687-.027344 42.871094-19.21875 42.898437-42.902344v-10.9375h10.9375c23.679688-.027343 42.871094-19.21875 42.898438-42.898437v-68.792969c-.027344-23.679687-19.21875-42.867187-42.898438-42.894531zm-392.203124 134.585937c-12.640626-.015624-22.882813-10.257812-22.898438-22.898437v-68.792969c.011719-12.640625 10.257812-22.886718 22.898438-22.898437h10.9375v114.589843zm97.273437 53.835938h-43.4375c-12.640625-.015625-22.886719-10.257812-22.898437-22.902344v-171.074218c.011718-12.640626 10.257812-22.882813 22.898437-22.898438h43.4375zm20-69.589844v-77.699218h157.65625v77.699218zm243.992187 46.691406c-.011718 12.640626-10.257812 22.882813-22.898437 22.898438h-43.4375v-216.875h43.4375c12.640625.015625 22.886719 10.257812 22.898437 22.902344zm53.835938-53.835937c-.011719 12.640625-10.257812 22.886719-22.898438 22.898437h-10.9375v-114.585937h10.9375c12.640626.011719 22.886719 10.257813 22.898438 22.898437zm0 0"/></svg>